<?xml version="1.0" standalone="no"?><svg viewBox="0 0 300 50" style="background-color:#ffffff00" version="1.1" xmlns="http://www.w3.org/2000/svg" xmlns:xlink="http://www.w3.org/1999/xlink" xml:space="preserve" x="0px" y="0px" width="100%" height="100%"><g><path class="lightblue" d="M 96.2 0 C 94.7 0 93.1 0.3 91.7 0.9 C 90.3 1.4 89 2.3 87.9 3.3 C 86.8 4.4 86 5.7 85.4 7.1 C 84.8 8.5 84.5 10 84.5 11.5 L 84.5 23.1 L 79.8 23.1 L 79.8 46.1 L 91.5 46.1 C 94.6 46.1 97.6 44.9 99.8 42.8 C 102 40.6 103.2 37.7 103.2 34.6 L 103.2 23.1 L 107.9 23.1 L 107.9 0 L 96.2 0 L 96.2 0 Z" fill="#00bedd"/><path class="darkblue" d="M 68 0 C 64.9 0 62 1.2 59.8 3.4 C 57.6 5.5 56.3 8.5 56.3 11.5 L 56.3 23.1 L 51.6 23.1 L 51.6 0 L 39.9 0 C 36.8 0 33.8 1.2 31.6 3.3 C 29.4 5.5 28.2 8.5 28.1 11.5 L 28.1 23.1 L 23.5 23.1 L 23.5 0 L 11.7 0 C 8.6 0 5.7 1.2 3.5 3.3 C 1.3 5.5 0 8.5 0 11.5 L 0 23.1 L 14.1 23.1 L 14.1 46.1 L 25.8 46.1 C 27.3 46.1 28.9 45.8 30.3 45.3 C 31.7 44.7 33 43.9 34.1 42.8 C 35.2 41.7 36 40.4 36.6 39 C 37.2 37.6 37.5 36.1 37.5 34.6 L 37.5 23.1 L 42.2 23.1 L 42.2 46.1 L 54 46.1 C 57 46.1 60 44.9 62.2 42.8 C 64.4 40.6 65.7 37.7 65.7 34.6 L 65.7 23.1 L 79.8 23.1 L 79.8 0 L 68 0 L 68 0 Z" fill="#001c43"/><path class="darkblue" d="M 142.6 24.2 L 142.6 23.1 L 151.3 23.1 L 151.3 24.3 C 149.4 24.5 148.9 24.9 147.8 27.9 C 147.3 29 144.7 36.4 141.4 46.1 L 139.4 46.1 L 132.9 30.4 L 132.8 30.4 L 127.1 46.1 L 125 46.1 L 118.6 27.7 C 117.5 24.6 116.8 24.4 114.8 24.2 L 114.8 23.1 L 125.9 23.1 L 125.9 24.2 L 124.5 24.3 C 123 24.5 122.9 24.8 123.4 26.5 L 127.7 39.5 L 127.7 39.5 L 131.7 27.9 L 131.7 27.7 C 130.6 24.6 129.9 24.4 127.9 24.2 L 127.9 23.1 L 139 23.1 L 139 24.2 L 137.6 24.3 C 136.2 24.5 136 24.8 136.5 26.5 L 141.8 39.5 L 141.9 39.5 C 143.3 35 144.9 29.2 145.5 27.1 C 146.1 24.9 145.9 24.5 144.1 24.3 L 142.6 24.2 L 142.6 24.2 ZM 241.6 46.7 C 246.8 47.1 250.1 43.5 250.1 39.4 C 250.1 35.6 247.4 33.7 244.6 32.5 L 243.4 32 C 240.9 31 239.6 29.7 239.6 27.9 C 239.5 27.4 239.6 27 239.8 26.5 C 239.9 26.1 240.2 25.7 240.5 25.4 C 240.8 25 241.2 24.8 241.7 24.6 C 242.1 24.5 242.6 24.4 243 24.4 C 245.7 24.4 247.6 27 247.8 29.8 L 249.1 29.8 L 249.1 22.8 L 247.9 22.8 C 247.9 22.8 247.9 24.4 247.1 24.4 C 246.9 24.4 246.6 24.2 246.2 24 L 246.2 24 C 245.5 23.7 244.4 23.1 243.1 23 C 238.1 22.6 235.6 25.9 235.6 29.7 C 235.6 33 238.1 35.1 241.1 36.3 L 241.8 36.7 C 244.5 37.8 245.9 39 245.9 41.4 C 245.9 41.9 245.8 42.3 245.6 42.8 C 245.5 43.3 245.2 43.7 244.9 44 C 244.5 44.4 244.1 44.7 243.6 44.8 C 243.2 45 242.7 45.1 242.2 45.1 C 239.5 45.1 236.9 43.1 236.6 39.6 L 235.3 39.6 L 235.3 46.6 L 236.4 46.6 C 236.4 46.6 236.5 45 237.2 45 C 237.4 45 237.8 45.2 238.2 45.5 C 239 45.9 240.2 46.6 241.6 46.7 L 241.6 46.7 ZM 225.6 41.5 C 225.9 41.4 226.2 41.4 226.4 41.4 C 226.8 41.4 227.2 41.4 227.5 41.6 C 227.8 41.7 228.1 41.9 228.4 42.2 C 228.9 42.9 229.2 43.7 229.2 44.6 C 229.2 45.8 228.8 46.9 228.1 47.9 C 227.2 48.9 226 49.7 224.7 50 L 224.7 49.4 C 225.6 49.1 226.3 48.5 226.9 47.7 C 227.3 47.1 227.6 46.4 227.6 45.6 C 227.6 45.5 227.6 45.4 227.5 45.3 C 227.4 45.3 227.4 45.2 227.3 45.2 C 227.2 45.2 227.1 45.3 227.1 45.3 C 226.8 45.5 226.5 45.5 226.1 45.5 C 225.9 45.5 225.6 45.5 225.4 45.4 C 225.2 45.3 224.9 45.1 224.8 44.9 C 224.6 44.7 224.4 44.5 224.4 44.3 C 224.3 44 224.2 43.8 224.2 43.5 C 224.2 43.2 224.3 43 224.4 42.7 C 224.5 42.4 224.7 42.2 224.9 42 C 225.1 41.8 225.3 41.6 225.6 41.5 L 225.6 41.5 ZM 179.5 36.2 C 177.9 35.6 176.9 34.8 176.9 33.8 C 176.9 33.5 176.9 33.2 177 33 C 177.1 32.7 177.3 32.5 177.5 32.3 C 177.7 32.1 177.9 32 178.2 31.9 C 178.4 31.8 178.7 31.8 178.9 31.8 C 180 31.8 181.7 32.8 182.8 35.2 L 183.6 35.2 L 183.4 30.5 L 182.7 30.5 C 182.7 30.5 182.2 31.3 181.5 31.3 C 181.3 31.3 181 31.2 180.6 31 C 180.1 30.8 179.6 30.6 179.1 30.5 C 175.2 30.1 173.3 32.7 173.3 35.4 C 173.3 38.2 176.3 39.5 177.9 40 C 179.8 40.8 180.6 41.8 180.6 42.9 C 180.6 43.2 180.5 43.5 180.4 43.8 C 180.3 44 180.2 44.3 179.9 44.5 C 179.7 44.7 179.5 44.9 179.2 45 C 178.9 45.1 178.6 45.1 178.3 45.1 C 176.4 45.1 174.3 43.2 173.6 41.1 L 172.9 41 L 173.2 46.5 L 173.9 46.5 C 173.9 46.5 174.2 45.7 174.7 45.7 C 175.2 45.7 175.8 45.9 176.4 46.1 C 176.9 46.2 177.4 46.4 177.8 46.4 C 180.8 46.8 184.5 44.9 184.5 41.3 C 184.5 38.5 182.4 37.2 179.5 36.2 L 179.5 36.2 L 179.5 36.2 ZM 292.4 33.8 C 292.4 34.8 293.4 35.6 295.1 36.2 L 295.1 36.2 C 297.9 37.2 300 38.5 300 41.3 C 300 44.9 296.4 46.8 293.3 46.4 C 292.9 46.4 292.4 46.2 291.9 46.1 C 291.3 45.9 290.7 45.7 290.3 45.7 C 289.8 45.7 289.4 46.5 289.4 46.5 L 288.7 46.5 L 288.5 41 L 289.2 41.1 C 289.9 43.2 291.9 45.1 293.9 45.1 C 294.2 45.1 294.5 45.1 294.7 45 C 295 44.9 295.3 44.7 295.5 44.5 C 295.7 44.3 295.9 44 296 43.8 C 296.1 43.5 296.1 43.2 296.1 42.9 C 296.1 41.8 295.3 40.8 293.4 40 C 291.9 39.5 288.8 38.2 288.8 35.4 C 288.8 32.7 290.8 30.1 294.6 30.5 C 295.1 30.6 295.7 30.8 296.2 31 C 296.6 31.2 296.9 31.3 297 31.3 C 297.7 31.3 298.2 30.5 298.2 30.5 L 298.9 30.5 L 299.1 35.2 L 298.3 35.2 C 297.2 32.8 295.6 31.8 294.5 31.8 C 294.2 31.8 293.9 31.8 293.7 31.9 C 293.4 32 293.2 32.1 293 32.3 C 292.8 32.5 292.7 32.7 292.6 33 C 292.5 33.2 292.4 33.5 292.4 33.8 L 292.4 33.8 ZM 285.4 42.7 L 285.4 35 C 285.4 32.3 283.6 30.3 280.8 30.3 C 279.5 30.3 278.7 30.7 277.5 31.4 C 277 31.8 276.4 32.2 275.9 32.5 L 275.9 32.5 L 275.9 32.5 L 275.9 32.5 L 275.9 32.5 L 275.5 32.8 L 275.5 30.3 L 275.4 30.3 L 275.4 30.3 C 273.1 30.8 270.9 31.3 268.9 31.5 L 268.9 32.4 C 271.1 32.7 271.1 32.7 271.1 34.8 L 271.1 42.7 C 271.1 44.7 271 44.8 268.6 45 L 268.6 46.1 L 277.2 46.1 L 277.2 45 C 275.7 44.8 275.5 44.7 275.5 42.7 L 275.5 34.2 C 276.3 33.5 277.4 33 278.5 32.9 C 279.9 32.9 281 33.7 281 35.8 L 281 42.7 C 281 44.7 280.8 44.8 279.1 45 L 279.1 46.1 L 287.5 46.1 L 287.5 45 C 285.5 44.8 285.3 44.7 285.3 42.7 L 285.4 42.7 L 285.4 42.7 ZM 256.7 37.4 C 256.7 41.8 258.1 45.1 260.4 45.1 C 261.7 45.1 263.3 44.2 263.3 39.1 C 263.3 34.5 261.9 31.8 259.7 31.8 C 258.2 31.8 256.7 33.6 256.7 37.4 L 256.7 37.4 ZM 256.9 30.9 C 258 30.5 259.1 30.3 260.2 30.3 C 261.3 30.2 262.3 30.4 263.3 30.8 C 264.3 31.2 265.1 31.7 265.9 32.5 C 266.7 33.2 267.2 34.1 267.6 35 C 268.1 36 268.3 37 268.2 38.1 C 268.2 43.8 264.1 46.6 260 46.6 C 254.5 46.6 251.8 42.6 251.8 38.8 C 251.8 37.7 252 36.6 252.4 35.5 C 252.8 34.5 253.4 33.6 254.2 32.8 C 255 32 255.9 31.3 256.9 30.9 L 256.9 30.9 ZM 219.7 42.7 L 219.7 35 C 219.7 32.3 217.9 30.3 215.1 30.3 C 213.8 30.3 213 30.7 211.8 31.4 C 211.3 31.8 210.8 32.1 210.3 32.5 L 210.3 32.5 L 210.3 32.5 L 210.3 32.5 L 210.3 32.5 L 209.8 32.8 L 209.8 30.3 L 209.7 30.3 C 207.4 30.8 205.2 31.3 203.2 31.5 L 203.2 32.4 C 205.4 32.7 205.5 32.7 205.5 34.8 L 205.5 42.7 C 205.5 44.7 205.3 44.8 202.9 45 L 202.9 46.1 L 211.5 46.1 L 211.5 45 C 210 44.8 209.8 44.7 209.8 42.7 L 209.8 34.2 C 210.7 33.5 211.7 33 212.9 32.9 C 214.2 32.9 215.3 33.7 215.3 35.8 L 215.3 42.7 C 215.3 44.7 215.2 44.8 213.4 45 L 213.4 46.1 L 221.8 46.1 L 221.8 45 C 219.8 44.8 219.7 44.7 219.7 42.7 L 219.7 42.7 ZM 191.3 37.4 C 191.3 41.8 192.7 45.1 195 45.1 C 196.3 45.1 197.9 44.2 197.9 39.1 C 197.9 34.5 196.5 31.8 194.3 31.8 C 192.8 31.8 191.3 33.6 191.3 37.4 L 191.3 37.4 ZM 191.5 30.9 C 192.5 30.5 193.6 30.3 194.8 30.3 C 195.8 30.2 196.8 30.4 197.8 30.8 C 198.8 31.2 199.7 31.7 200.4 32.5 C 201.2 33.2 201.8 34.1 202.2 35 C 202.6 36 202.8 37 202.8 38.1 C 202.8 43.8 198.7 46.6 194.6 46.6 C 189.1 46.6 186.3 42.6 186.3 38.8 C 186.3 37.7 186.5 36.6 186.9 35.5 C 187.3 34.5 188 33.6 188.7 32.8 C 189.5 32 190.5 31.3 191.5 30.9 L 191.5 30.9 ZM 157.9 30.3 L 157.9 42.6 C 157.9 44.6 158.1 44.8 160.4 45 L 160.4 46.2 L 151.1 46.2 L 151.1 45 C 153.4 44.8 153.6 44.6 153.6 42.6 L 153.6 34.9 C 153.6 32.8 153.5 32.7 151.2 32.5 L 151.2 31.5 C 153.3 31.3 155.7 30.8 157.9 30.3 L 157.9 30.3 ZM 157.3 26.6 C 156.8 27 156.1 27.3 155.5 27.3 C 154.8 27.3 154.1 27 153.7 26.6 C 153.2 26.1 152.9 25.4 152.9 24.8 C 152.9 24.1 153.2 23.4 153.7 23 C 154.1 22.5 154.8 22.2 155.5 22.2 C 156.1 22.2 156.8 22.5 157.3 23 C 157.8 23.4 158 24.1 158 24.8 C 158 25.4 157.8 26.1 157.3 26.6 L 157.3 26.6 ZM 168.7 42.6 L 168.7 21.2 C 166.4 21.7 163.6 22.2 162 22.4 L 162 23.5 C 164.3 23.7 164.4 23.7 164.4 25.8 L 164.4 42.6 C 164.4 44.6 164.2 44.8 161.9 45 L 161.9 46.2 L 171.2 46.2 L 171.2 45 C 168.9 44.8 168.7 44.6 168.7 42.6 L 168.7 42.6 Z" fill="#001c43"/></g></svg>