<svg width="157" height="28" viewBox="0 0 157 28" fill="none" xmlns="http://www.w3.org/2000/svg">
<path d="M50.2464 0.965694C49.4474 0.960728 48.6553 1.11238 47.9152 1.41199C47.1752 1.7116 46.5017 2.15329 45.9334 2.71183C45.365 3.27037 44.9129 3.9348 44.6029 4.66718C44.2928 5.39956 44.1308 6.18552 44.1263 6.98016V12.9978H41.6776V25.0267H47.7977C49.4111 25.0359 50.9622 24.4075 52.1098 23.2796C53.2575 22.1518 53.9078 20.6168 53.9179 19.0122V12.9978H56.3634V0.965694H50.2464Z" fill="#00BEDD"/>
<path d="M35.5575 0.965676C33.946 0.958989 32.3978 1.5886 31.2526 2.71627C30.1075 3.84394 29.4592 5.37747 29.45 6.98014V12.9977H26.9887V0.965676H20.8717C19.2583 0.95648 17.7073 1.58489 16.5596 2.71273C15.4119 3.84058 14.7616 5.37554 14.7516 6.98014V12.9977H12.3029V0.965676H6.18593C4.57252 0.95648 3.02148 1.58489 1.87382 2.71273C0.726158 3.84058 0.0758219 5.37554 0.0657959 6.98014L0.0657959 12.9977H7.40869V25.0267H13.5288C14.3283 25.0325 15.1212 24.8814 15.862 24.5822C16.6027 24.283 17.2769 23.8414 17.8459 23.2828C18.415 22.7242 18.8677 22.0594 19.1781 21.3266C19.4886 20.5939 19.6507 19.8074 19.6553 19.0122V12.9977H22.104V25.0267H28.2146C29.828 25.0359 31.3791 24.4075 32.5267 23.2796C33.6744 22.1518 34.3247 20.6168 34.3347 19.0122V12.9977H41.6776V0.965676H35.5575Z" fill="white"/>
<path fill-rule="evenodd" clip-rule="evenodd" d="M88.0983 23.1915V12.0425C86.8914 12.3002 85.4001 12.5547 84.6007 12.671V13.2209C85.7887 13.312 85.8298 13.3277 85.8298 14.4087V23.2073C85.8298 24.2505 85.735 24.3385 84.5438 24.4642V25.0487H89.3811V24.4485C88.1931 24.3354 88.0983 24.2474 88.0983 23.1915ZM82.1185 14.8184C81.8685 15.0671 81.5293 15.2068 81.1757 15.2068C80.822 15.2068 80.4829 15.0671 80.2329 14.8184C79.9828 14.5697 79.8423 14.2324 79.8423 13.8807C79.8423 13.529 79.9828 13.1917 80.2329 12.9431C80.4829 12.6944 80.822 12.5547 81.1757 12.5547C81.5293 12.5547 81.8685 12.6944 82.1185 12.9431C82.3686 13.1917 82.509 13.529 82.509 13.8807C82.509 14.2324 82.3686 14.5697 82.1185 14.8184ZM82.4585 16.7623V23.1915C82.4585 24.2474 82.5501 24.3353 83.7413 24.4485V25.0455H78.9039V24.461C80.0951 24.3353 80.1899 24.2474 80.1899 23.2041V19.1725C80.1899 18.0632 80.1488 18.0444 78.9608 17.9155V17.4222C80.0572 17.2745 81.2863 17.02 82.4585 16.7623ZM99.9692 17.0952C100.509 16.8719 101.088 16.7587 101.672 16.7623C102.219 16.7423 102.764 16.8328 103.274 17.0283C103.785 17.2238 104.25 17.5203 104.642 17.8999C105.034 18.2794 105.344 18.7341 105.555 19.2364C105.765 19.7387 105.87 20.2782 105.865 20.8222C105.865 23.8074 103.723 25.2498 101.583 25.2498C98.7177 25.2498 97.2833 23.1632 97.2833 21.2087C97.2689 20.6278 97.372 20.0499 97.5864 19.5093C97.8008 18.9687 98.1222 18.4765 98.5315 18.0618C98.9408 17.6471 99.4297 17.3184 99.9692 17.0952ZM99.8678 20.4765C99.8678 22.7799 100.613 24.483 101.805 24.483C102.471 24.483 103.309 24.0242 103.309 21.3721C103.309 18.9399 102.604 17.5321 101.413 17.5321C100.648 17.5321 99.8678 18.5 99.8678 20.4765ZM114.674 23.2198V19.2133C114.674 17.8055 113.761 16.7623 112.272 16.7623C111.621 16.7623 111.211 16.9665 110.579 17.3656C110.313 17.5399 110.038 17.7261 109.759 17.9147L109.539 18.0632V16.7623L109.47 16.7771C108.281 17.0296 107.117 17.2767 106.064 17.3907V17.8841C107.217 18.0098 107.252 18.0318 107.252 19.141V23.2261C107.252 24.2694 107.16 24.3416 105.912 24.4548V25.0361H110.43V24.4485C109.628 24.3353 109.539 24.2631 109.539 23.2198V18.8205C109.972 18.4213 110.53 18.1827 111.119 18.1449C111.843 18.1449 112.402 18.5628 112.402 19.6438V23.2198C112.402 24.2631 112.329 24.3353 111.397 24.4485V25.0298H115.789V24.4485C114.762 24.3353 114.674 24.2631 114.674 23.2198ZM134.117 17.0942C134.657 16.8712 135.236 16.7583 135.821 16.7623C136.367 16.7422 136.912 16.8328 137.423 17.0283C137.933 17.2239 138.398 17.5205 138.79 17.9C139.181 18.2796 139.492 18.7343 139.701 19.2366C139.911 19.7389 140.016 20.2783 140.01 20.8222C140.01 23.8074 137.868 25.2498 135.729 25.2498C132.863 25.2498 131.429 23.1632 131.429 21.2087C131.415 20.6275 131.518 20.0493 131.732 19.5086C131.947 18.9678 132.269 18.4754 132.678 18.0607C133.088 17.6459 133.577 17.3173 134.117 17.0942ZM133.991 20.4765C133.991 22.7799 134.737 24.483 135.928 24.483C136.598 24.483 137.435 24.0243 137.435 21.3721C137.435 18.9399 136.728 17.5321 135.54 17.5321C134.775 17.5321 133.991 18.5 133.991 20.4765ZM148.943 23.2198V19.2133C148.943 17.8055 148.03 16.7623 146.541 16.7623C145.89 16.7623 145.48 16.9665 144.851 17.3656C144.571 17.5478 144.282 17.743 143.99 17.9403L143.808 18.0632V16.7623L143.739 16.7771L143.739 16.7771C142.55 17.0296 141.386 17.2767 140.333 17.3907V17.8841C141.486 18.0098 141.524 18.0318 141.524 19.141V23.2261C141.524 24.2694 141.429 24.3416 140.184 24.4548V25.0361H144.687V24.4485C143.887 24.3353 143.796 24.2631 143.796 23.2198V18.8205C144.229 18.4217 144.786 18.1832 145.375 18.1449C146.102 18.1449 146.661 18.5628 146.661 19.6438V23.2198C146.661 24.2631 146.586 24.3353 145.653 24.4485V25.0298H150.049V24.4485C149.022 24.3353 148.93 24.2631 148.93 23.2198H148.943ZM152.62 18.5723C152.62 19.1034 153.139 19.5559 154.017 19.8701L154.011 19.8607C155.48 20.3729 156.579 21.0705 156.579 22.5348C156.579 24.4014 154.684 25.3629 153.104 25.187C152.879 25.1582 152.623 25.0756 152.371 24.9945C152.045 24.8896 151.727 24.7872 151.496 24.8067C151.249 24.8256 151.053 25.2027 151.053 25.2027H150.693L150.567 22.3745L150.943 22.3903C151.297 23.5058 152.361 24.4925 153.385 24.4925C153.539 24.4986 153.693 24.4731 153.837 24.4176C153.98 24.3622 154.111 24.2779 154.221 24.17C154.33 24.0622 154.417 23.933 154.474 23.7907C154.531 23.6483 154.559 23.4957 154.554 23.3424C154.554 22.7736 154.146 22.2426 153.139 21.8561C152.339 21.5481 150.74 20.8694 150.74 19.4082C150.74 18.0004 151.777 16.6649 153.764 16.8943C154.024 16.9262 154.333 17.047 154.586 17.1463C154.782 17.2231 154.945 17.2871 155.028 17.2871C155.398 17.2871 155.66 16.8692 155.66 16.8692H156.004L156.131 19.3296H155.714C155.123 18.0538 154.276 17.5322 153.701 17.5322C153.561 17.5293 153.422 17.5539 153.292 17.6047C153.162 17.6556 153.043 17.7315 152.943 17.8282C152.842 17.9249 152.762 18.0405 152.707 18.1682C152.651 18.2959 152.622 18.4333 152.62 18.5723ZM93.7382 19.8701C92.8599 19.5559 92.3385 19.1034 92.3385 18.5723C92.3402 18.4333 92.3695 18.2959 92.4248 18.1682C92.4801 18.0405 92.5603 17.9249 92.6608 17.8282C92.7613 17.7315 92.88 17.6556 93.0102 17.6047C93.1403 17.5539 93.2793 17.5293 93.4191 17.5322C93.9942 17.5322 94.8409 18.0538 95.4349 19.3296H95.852L95.7288 16.8692H95.3812C95.3812 16.8692 95.119 17.2871 94.7493 17.2871C94.6646 17.2871 94.4988 17.2222 94.3006 17.1446C94.0478 17.0456 93.7423 16.926 93.4855 16.8943C91.4949 16.6649 90.4649 18.0004 90.4649 19.4082C90.4649 20.8694 92.0605 21.5481 92.8599 21.8561C93.8678 22.2426 94.2785 22.7736 94.2785 23.3424C94.2826 23.4961 94.2548 23.649 94.1969 23.7917C94.139 23.9343 94.0522 24.0635 93.942 24.1714C93.8318 24.2792 93.7004 24.3634 93.5561 24.4186C93.4118 24.4739 93.2576 24.499 93.1031 24.4925C92.0794 24.4925 91.0147 23.5058 90.6608 22.3903L90.2911 22.3745L90.4143 25.2027H90.7745C90.7745 25.2027 90.9673 24.8256 91.2137 24.8067C91.4473 24.7872 91.7655 24.8898 92.0909 24.9948C92.3421 25.0758 92.5976 25.1582 92.8219 25.187C94.4017 25.3629 96.2975 24.4014 96.2975 22.5348C96.2975 21.0705 95.2011 20.3729 93.7319 19.8607L93.7382 19.8701ZM117.758 22.6251C117.9 22.5674 118.052 22.5388 118.206 22.5411C118.395 22.5395 118.583 22.5785 118.756 22.6555C118.929 22.7325 119.083 22.8457 119.208 22.9873C119.5 23.3296 119.65 23.7705 119.625 24.2191C119.638 24.8442 119.434 25.4547 119.047 25.9474C118.589 26.4866 117.974 26.8709 117.287 27.0472V26.733C117.745 26.5633 118.144 26.264 118.434 25.872C118.664 25.5517 118.791 25.1691 118.797 24.7753C118.801 24.714 118.784 24.6532 118.75 24.6024C118.726 24.574 118.692 24.556 118.655 24.5522C118.61 24.5561 118.566 24.5712 118.528 24.5962C118.377 24.6772 118.207 24.7173 118.035 24.7124C117.903 24.7117 117.772 24.6834 117.651 24.6293C117.53 24.5751 117.422 24.4964 117.334 24.3982C117.239 24.3016 117.163 24.1871 117.112 24.0615C117.061 23.9359 117.036 23.8015 117.037 23.666C117.037 23.5184 117.067 23.3723 117.126 23.2366C117.184 23.101 117.27 22.9787 117.378 22.8773C117.486 22.7687 117.615 22.6829 117.758 22.6251ZM126.111 25.3063C128.835 25.5137 130.535 23.6597 130.535 21.5009C130.535 19.5275 129.16 18.5565 127.669 17.9344L127.075 17.6767C125.732 17.1111 125.047 16.4543 125.047 15.5179C125.031 15.2768 125.067 15.0353 125.152 14.809C125.237 14.5827 125.369 14.3767 125.539 14.2044C125.709 14.0322 125.914 13.8975 126.14 13.8092C126.366 13.721 126.608 13.6811 126.851 13.6922C128.244 13.6922 129.243 15.0591 129.334 16.5203H130.02V12.8657H129.388C129.388 12.8657 129.388 13.6796 128.996 13.6796C128.894 13.6796 128.738 13.6011 128.53 13.4964L128.53 13.4964C128.149 13.3048 127.594 13.0256 126.879 12.9789C124.295 12.7652 122.974 14.4935 122.974 16.4543C122.974 18.1889 124.295 19.251 125.862 19.9266L126.235 20.0932C127.647 20.6965 128.336 21.2998 128.336 22.5442C128.35 22.7996 128.31 23.0551 128.22 23.2944C128.129 23.5338 127.989 23.7517 127.809 23.9341C127.629 24.1166 127.412 24.2597 127.173 24.3542C126.934 24.4487 126.678 24.4926 126.421 24.483C125.028 24.483 123.663 23.4649 123.492 21.6015H122.816V25.2717H123.378C123.378 25.2717 123.461 24.4579 123.83 24.4579C123.934 24.4579 124.112 24.5546 124.349 24.6829C124.777 24.9154 125.397 25.2517 126.111 25.3063ZM74.4837 13.5885V13.0009L79.024 12.9946V13.623C77.9845 13.7582 77.7602 13.9499 77.1504 15.543C76.926 16.1087 75.5548 19.9706 73.8581 25.0204H72.7838L69.3936 16.822H69.3525L66.3635 25.0204H65.2924L61.9211 15.4173C61.3556 13.7865 60.9891 13.6953 59.9401 13.5885V13.0009H65.7474V13.5885L65.0207 13.6608C64.2529 13.7519 64.1739 13.8996 64.4551 14.8109L66.6668 21.5449H66.7079L68.7774 15.5336L68.7553 15.4173C68.1898 13.7865 67.8264 13.6953 66.7743 13.5885V13.0009H72.5911V13.5885L71.8644 13.6608C71.1029 13.7519 71.0176 13.8996 71.2956 14.792L74.0603 21.5449H74.1014C74.847 19.2227 75.6748 16.1872 75.9592 15.0874C76.2625 13.931 76.1614 13.733 75.2704 13.6608L74.4837 13.5885Z" fill="white"/>
</svg>
