<svg width="75" height="54" viewBox="0 0 75 54" fill="none" xmlns="http://www.w3.org/2000/svg">
<path d="M65.9261 0.0849609C63.8217 0.0851655 61.8034 0.915663 60.3151 2.39386C58.8268 3.87206 57.9903 5.87696 57.9895 7.96775V15.8529H54.8178V31.6192H62.7544C64.8585 31.6188 66.8763 30.7881 68.3641 29.3099C69.8518 27.8317 70.6877 25.8269 70.6879 23.7364V15.8529H73.8635V0.0849609H65.9261Z" fill="#00BEDD"/>
<path d="M46.882 0.0849611C44.7776 0.0851657 42.7594 0.915688 41.2712 2.39391C39.7831 3.87213 38.9467 5.87703 38.9461 7.96775V15.8529H35.7744V0.0849611H27.8386C25.7338 0.0845515 23.715 0.914803 22.2264 2.39309C20.7377 3.87138 19.901 5.87663 19.9004 7.96775V15.8529H16.7295V0.0849611H8.79444C7.7524 0.0847582 6.72052 0.288509 5.75776 0.684575C4.79499 1.08064 3.92019 1.66126 3.18332 2.39328C2.44645 3.12529 1.86195 3.99436 1.4632 4.95084C1.06446 5.90732 0.859273 6.93248 0.859375 7.96775V15.8529H10.3838V31.6192H18.3165C20.4213 31.6196 22.4401 30.7894 23.9287 29.3111C25.4174 27.8328 26.2541 25.8275 26.2547 23.7364V15.8529H29.4256V31.6192H37.3607C39.4651 31.619 41.4833 30.7885 42.9716 29.3103C44.4599 27.8321 45.2964 25.8272 45.2973 23.7364V15.8529H54.8193V0.0849611H46.882Z" fill="white"/>
<path fill-rule="evenodd" clip-rule="evenodd" d="M22.1807 50.5482V42.0076C21.2659 42.206 20.139 42.4021 19.5382 42.4971V42.9048C20.4359 42.9751 20.4646 42.9897 20.4646 43.8144V50.5482C20.4646 51.3482 20.3955 51.4177 19.4939 51.5011V51.9481H23.1553V51.5011C22.2576 51.4177 22.1846 51.3466 22.1846 50.5482H22.1807ZM17.6614 44.1334C17.4699 44.3237 17.2102 44.4306 16.9393 44.4306C16.6685 44.4306 16.4087 44.3237 16.2172 44.1334C16.0257 43.9431 15.9181 43.6851 15.9181 43.416C15.9181 43.1469 16.0257 42.8888 16.2172 42.6985C16.4087 42.5083 16.6685 42.4014 16.9393 42.4014C17.2102 42.4014 17.4699 42.5083 17.6614 42.6985C17.853 42.8888 17.9606 43.1469 17.9606 43.416C17.9606 43.6851 17.853 43.9431 17.6614 44.1334ZM17.9124 45.6204V50.5482H17.9147C17.9147 51.3466 17.9839 51.4177 18.8854 51.5011V51.9481H15.221V51.5011C16.1241 51.4177 16.1948 51.3482 16.1948 50.5482V47.4689C16.1948 46.6157 16.1622 46.6018 15.2622 46.5045V46.1262C16.0914 46.0127 17.0217 45.8181 17.9124 45.6204ZM31.0794 48.4627C31.0794 50.227 31.6421 51.5288 32.5444 51.5288C33.0558 51.5288 33.6846 51.1775 33.6846 49.1483C33.6846 47.2852 33.1499 46.2088 32.2491 46.2088C31.6732 46.2088 31.0794 46.9493 31.0794 48.4627ZM29.1404 49.0232C29.1404 46.8126 30.8844 45.6204 32.4667 45.6204C34.4198 45.6204 35.6345 47.1068 35.6345 48.7283C35.6345 51.0107 34.0133 52.1164 32.3944 52.1164C30.2284 52.1164 29.1404 50.5204 29.1404 49.0232ZM42.3059 50.5621V47.4944C42.3059 46.4134 41.6111 45.6189 40.4857 45.6189C39.9922 45.6189 39.6883 45.7733 39.201 46.0822C38.9523 46.2497 38.6819 46.4343 38.4184 46.6142V45.6204C37.5044 45.8181 36.5967 46.0134 35.7993 46.1107V46.4906C36.6682 46.5848 36.6946 46.6018 36.6946 47.4427V50.5629C36.6946 51.3636 36.6247 51.4192 35.6843 51.5018V51.9489H39.0969V51.5018C38.4891 51.4192 38.4207 51.3636 38.4207 50.5629V47.2041C38.8093 46.8682 39.2484 46.6852 39.6192 46.6852C40.1632 46.6852 40.5868 47.0072 40.5868 47.8318V50.5621C40.5868 51.3628 40.5308 51.4184 39.8243 51.5011V51.9481H43.146V51.5011C42.3766 51.4184 42.3059 51.3628 42.3059 50.5621ZM56.9364 48.4627C56.9364 50.227 57.4999 51.5288 58.4061 51.5288C58.9143 51.5288 59.5477 51.1775 59.5477 49.1483C59.5477 47.2852 59.0107 46.2088 58.1076 46.2088C57.5286 46.2088 56.9364 46.9493 56.9364 48.4627ZM54.995 49.0232C54.995 46.8126 56.7444 45.6204 58.3206 45.6204C60.2752 45.6204 61.4884 47.1068 61.4884 48.7283C61.4884 51.0107 59.8687 52.1164 58.2491 52.1164C56.0776 52.1164 54.995 50.5204 54.995 49.0232ZM68.253 50.5621V47.4944C68.253 46.4134 67.5629 45.6189 66.4352 45.6189C65.9416 45.6189 65.6323 45.7733 65.1544 46.0822C64.9474 46.2186 64.7302 46.3663 64.5136 46.5136L64.513 46.514L64.3655 46.6142V45.6204L64.323 45.6296C63.4206 45.8241 62.5353 46.0149 61.7456 46.1107V46.4906C62.6176 46.5848 62.6448 46.6018 62.6448 47.4419V50.5629C62.6448 51.3636 62.5741 51.4192 61.6345 51.5018V51.9489H65.0455V51.5018C64.4417 51.4192 64.3694 51.3636 64.3694 50.5629V47.2041C64.7634 46.8682 65.201 46.6852 65.5678 46.6852C66.1196 46.6852 66.5377 47.0072 66.5377 47.8318V50.5621C66.5377 51.3628 66.481 51.4184 65.7753 51.5011V51.9481H69.0962V51.5011C68.3191 51.4184 68.2499 51.3628 68.2499 50.5621H68.253ZM71.0408 47.0064C71.0408 47.4126 71.434 47.7631 72.0962 47.9994H72.0977C73.2107 48.3924 74.0407 48.9236 74.0407 50.044C74.0407 51.4725 72.5967 52.2106 71.4045 52.0747C71.2295 52.0553 71.0287 51.9896 70.8323 51.9253C70.5917 51.8466 70.3578 51.77 70.1866 51.7836C70.0009 51.7975 69.8524 52.0871 69.8524 52.0871L69.5796 52.0747L69.4841 49.9081L69.7662 49.9197C70.0359 50.7729 70.8402 51.5281 71.6174 51.5281C71.735 51.5326 71.8523 51.513 71.9619 51.4704C72.0715 51.4279 72.171 51.3633 72.2543 51.2807C72.3377 51.1982 72.4029 51.0994 72.446 50.9906C72.4892 50.8819 72.5092 50.7654 72.505 50.6486C72.505 50.2123 72.1957 49.8085 71.434 49.5128C70.827 49.2742 69.617 48.7569 69.617 47.638C69.617 46.5624 70.398 45.537 71.9042 45.7131C72.108 45.7377 72.3467 45.8326 72.5405 45.9097C72.6866 45.9678 72.8071 46.0157 72.8679 46.0157C73.1423 46.0157 73.3397 45.693 73.3397 45.693H73.6039L73.6987 47.5778L73.3809 47.5863C72.9324 46.608 72.2912 46.2096 71.8576 46.2096C71.7511 46.2079 71.6454 46.2273 71.5465 46.2666C71.4476 46.3059 71.3576 46.3643 71.2816 46.4384C71.2056 46.5125 71.1452 46.6009 71.1038 46.6984C71.0625 46.7959 71.0411 46.9006 71.0408 47.0064ZM26.4482 47.9994C25.7891 47.7631 25.392 47.4126 25.392 47.0064C25.3928 46.9005 25.4147 46.7958 25.4564 46.6983C25.4981 46.6008 25.5588 46.5125 25.635 46.4385C25.7113 46.3644 25.8015 46.306 25.9005 46.2667C25.9995 46.2275 26.1053 46.208 26.2119 46.2096C26.6464 46.2096 27.286 46.608 27.7368 47.5863L28.0546 47.5778L27.9614 45.693H27.6948C27.6948 45.693 27.4982 46.0157 27.2285 46.0157C27.1639 46.0157 27.0393 45.9662 26.8898 45.9068C26.6973 45.8302 26.4638 45.7374 26.2648 45.7131C24.757 45.537 23.9736 46.5624 23.9736 47.638C23.9736 48.7569 25.1868 49.2742 25.7923 49.5128C26.5516 49.8085 26.8671 50.2123 26.8671 50.6486C26.8704 50.7658 26.8494 50.8824 26.8055 50.9911C26.7616 51.0999 26.6956 51.1986 26.6118 51.2811C26.5279 51.3635 26.4279 51.428 26.318 51.4705C26.208 51.5129 26.0905 51.5326 25.9726 51.5281C25.2008 51.5281 24.3933 50.7729 24.1283 49.9197L23.8415 49.9081L23.9379 52.0747L24.2099 52.0871C24.2099 52.0871 24.3545 51.7975 24.5433 51.7836C24.7141 51.7701 24.9467 51.8462 25.1867 51.9247C25.3838 51.9892 25.5858 52.0553 25.7627 52.0747C26.9573 52.2106 28.3974 51.4725 28.3974 50.044C28.3974 48.9236 27.5673 48.3924 26.4544 47.9994H26.4482ZM44.637 50.1084C44.7452 50.0636 44.8614 50.0412 44.9786 50.0425L44.981 50.044C45.1258 50.0436 45.2691 50.0741 45.401 50.1336C45.533 50.193 45.6505 50.2799 45.7457 50.3884C45.9478 50.6185 46.0566 50.932 46.0566 51.332C46.06 51.8067 45.9032 52.2688 45.6112 52.6446C45.3074 53.0276 44.8644 53.3063 44.2776 53.4855V53.2538C44.6833 53.0824 44.974 52.8608 45.1589 52.5906C45.3263 52.3426 45.4183 52.052 45.4239 51.7536C45.4281 51.7067 45.4154 51.66 45.3882 51.6215C45.3796 51.6102 45.3689 51.6007 45.3566 51.5936C45.3444 51.5864 45.3308 51.5817 45.3167 51.5798C45.2836 51.584 45.2523 51.5968 45.2258 51.6169C45.1097 51.6775 44.9798 51.707 44.8488 51.7026C44.7484 51.7016 44.6493 51.6799 44.5578 51.6388C44.4663 51.5977 44.3844 51.5382 44.3172 51.464C44.1738 51.3128 44.0955 51.1119 44.0988 50.9042C44.0978 50.7924 44.1195 50.6815 44.1625 50.5782C44.2055 50.4749 44.2689 50.3812 44.3491 50.3027C44.4308 50.2192 44.5288 50.1531 44.637 50.1084ZM50.9645 52.1589C53.0272 52.3187 54.3064 50.8996 54.3064 49.2472C54.3064 47.7353 53.2626 46.9925 52.1357 46.5192L51.6873 46.3208C50.6723 45.8876 50.1516 45.3842 50.1516 44.6684C50.1516 43.8831 50.6583 43.27 51.5132 43.27C52.5655 43.27 53.3264 44.3186 53.3994 45.4467H53.9178V42.6384H53.4453C53.4453 42.6384 53.4328 43.2631 53.143 43.2631C53.0677 43.2631 52.9503 43.204 52.7926 43.1246C52.5052 42.98 52.084 42.7679 51.5396 42.7226C49.5928 42.5589 48.5972 43.8808 48.5972 45.3826C48.5972 46.7115 49.6013 47.523 50.7826 48.0411L51.0655 48.1677C52.1342 48.631 52.6541 49.0943 52.6541 50.0417C52.6541 50.8409 52.1342 51.5273 51.2085 51.5273C50.1555 51.5273 49.121 50.7482 48.9897 49.3228H48.4729V52.1319H48.8949C48.8949 52.1319 48.9601 51.5072 49.2353 51.5072C49.3152 51.5072 49.4525 51.5823 49.6342 51.6817C49.9599 51.8598 50.428 52.1157 50.9637 52.1574L50.9645 52.1589ZM11.8713 43.1897V42.7419L15.3111 42.7434V43.2214C14.5231 43.3202 14.3521 43.4692 13.892 44.6884C13.721 45.1224 12.6819 48.0751 11.398 51.9412H10.5843L8.01958 45.6683H7.98772L5.72378 51.9412H4.91006L2.35779 44.5888C1.93111 43.3442 1.65444 43.2747 0.859375 43.1897V42.7419H5.26524V43.1897L4.71344 43.2461C4.13443 43.3164 4.07304 43.4337 4.28365 44.1286L5.95305 49.2804H5.9818L7.55172 44.6792L7.53384 44.5888C7.10406 43.3442 6.83204 43.2747 6.0331 43.1897V42.7419H10.4366V43.1897L9.88716 43.2461C9.30971 43.3164 9.24443 43.4299 9.45349 44.114L11.5519 49.2804H11.5814C12.1464 47.5044 12.7736 45.1795 12.9874 44.3387C13.2166 43.4561 13.1412 43.3025 12.4682 43.2461L11.8713 43.1897Z" fill="white"/>
</svg>
